<svg width="32" height="32" viewBox="0 0 100 100" fill="none" xmlns="http://www.w3.org/2000/svg">
            <path d="M85 35.134C85 32.2961 82.7039 30 79.866 30H20.134C17.2961 30 15 32.2961 15 35.134V64.866C15 67.7039 17.2961 70 20.134 70H79.866C82.7039 70 85 67.7039 85 64.866V35.134Z" stroke="var(--text-main )" stroke-width="8" stroke-linejoin="round"/>
            <path d="M15 30L46.2921 54.6677C48.4173 56.343 51.5827 56.343 53.7079 54.6677L85 30" stroke="var(--primary-color)" stroke-width="8" stroke-linecap="round" stroke-linejoin="round"/>
            <path d="M79.866 30C82.7039 30 85 32.2961 85 35.134V39.134C85 41.9719 82.7039 44.268 79.866 44.268H65C62.2386 44.268 60 42.0294 60 39.268V30H79.866Z" fill="var(--primary-color)"/>
          </svg>